<?xml version="1.0" encoding="UTF-8"?>
<svg xmlns="http://www.w3.org/2000/svg" width="247" height="328">
  <g fill="none" fill-rule="evenodd">
    <path fill="#FCF9F0" d="M10.4 327.6c-.7-.7 0-2.7-.5-4l-1.2-2c-.5-.2-1.4 0-2-.1-.5-.2-.4-1-1.3-.5-.7.3-.1 1.2-1 1.4-.4.2-1.1-.5-1-.4-.5-.5.1-.6 0-1.6 0-.5-.4-1-.4-1.5 0-.6.2-1.4.1-2 0-1.2-.4-2.5-.6-3.7-.3-1.2-1-3-.9-3.6.2-.8 1.2-1 1.4-1.8.2-.8-.1-3.8-.3-5.2 0-1-1.1-2.2-.8-2.7.6-1 1.7 0 3.3.2.4.1 1.2 0 1.7.2 1 .4 1.4 2 2.3 2.3 1.8.6 5.9 0 6.2-1.4.2-.7-.2-1-.4-1.3 0-.2-1-1.3-1-1.3 0-.2.4-.4.5-.9.2-1.4-2-1-3.3-1l-3.5.2c-1 0-4.8-.3-5.1-.8-.4-.7-.1-4.3 0-4.5.6-1.1 4-1.5 5.8-2 1.2-.4 5.5 0 6.2-1.4.6-1-.3-.7-.2-2.3 0-.6 1-1.1.5-2-.3-.5-3-.6-5-.4-.5 0-1.7.6-2.3.7-1 .1-4.4.2-4.9-.3-.7-.7-.1-1-.1-2.2 0-3.1.4-2.6 2.7-4 1-.6 1.7-1 3-1.4 1.4-.3 5.5.2 6.2-.6.6-.8 0-1.7-.1-2.6-.1-.9.3-2-.2-2.4-.5-.5-3.4-.4-4.6 0-1 .3-1.5 1-2.3 1-.8 0-1.4-.7-2.4-.9-.4-.1-1.6.3-2-.3-.5-.4-.4-4.1-.4-5.8-.1-2.2-.3-4.2-.2-6 0-.5.4-1.2.4-1.7 0-1.3-.6-3.3-.1-5.1.2-.7.8-1.2.8-1.7s-.6-1.6-1-2.4c-.3-.9-1-1.8-1-2.4 0-1.6.9-1 1-2.5.3-1.7-1.3-4.3 0-5.5.8-.7 5-.6 6-.7 1.8 0 5.4.4 6-.4.5-.7-.1-1-.2-2.3 0 0 .6-2.3 0-2.8-.4-.4-1.7 0-2.1-.7-.8-1 .2-3.5 0-4.6 0-.7-.9-1-.4-1.9.3-.7 1.8-.3 2.4-1 .3-.5 0-1.5 0-2.2 0-.5.5-2 .1-2.6-.4-.7-3.6-.6-4.6-.5-1 0-1.9 1-3.2 1-1.8.2-4.2-.5-4.6-1.7-.5-1.5.3-3.8.4-5.8 0-.9-.4-1.6-.4-2.2 0-.8.2-1.4.1-2-.1-1.4-1.2-2.4-1-3.4 0-.7.7-1 .9-2 .2-1.5-.7-3.8-.2-4.9.2-.4 1.1-.7 1.4-.8 1-.4 2.9-.6 4-.4 1 .1 1.6.7 2.2.8 1.4.3 4.4.2 4.7-.3.6-.6-.1-2 0-2.8 0-.7.2-1.6 0-2.2-.3-.8-1.1-.6-1.4-1.3-.2-.3.1-1.1 0-1.6-.3-.8-1-1.1-1.1-1.8 0-.5.3-2.6.7-3.1.6-1 1.6-.6 1.8-1.5.4-1.1 0-4.9-.4-5.1-1.3-.9-5.4.5-6.6.5-1.5 0-4.8-.6-5.3-1.5-.3-.6-.3-2.4-.2-3.4 0-1.2.5-2.5.4-3.6-.1-.7-.7-1.5-1-2.4l-.6-2.6c-.1-.6-.3-1.8 0-2.3.2-.7 1.2-.6 1.4-1.4.2-.6-.2-1.7 0-2.8 0-1 .3-2 .2-2.6-.3-1.8-2-4-1.5-6 .2-.6 1-.6 1.2-1.4.2-.7-.1-1.5.1-2 .3-.6 1.3-.6 1.8-1.1.4-.4.5-1.1.8-1.5 1.3-2 2.3-1.4 5.3-1.4.6 0 3.6.1 4-.4.5-.5 0-1.8 0-2.8.1-.8.8-1.6.6-2.2-.8-1.7-5.6 0-7.5-.2-1-.1-1-.7-1.7-.7-1 0-3 .7-3.5.1-.4-.3 0-1.5 0-1.9 0-2.4.3-4 0-6.2-.2-1.4-2.3-4.2-1-6 .3-.3 1.9-.7 2.3-.3.4.3.3 1.6.4 2 .2.5.9 1 1.2 2 .4.9.6 2.2 1 2.4.5.3 1.2-.2 1.9 0l1.6.5c1 .1 4.3 0 4.7-.5.4-.4 0-1.7 0-2.4.2-.7 1-1.4.9-2-.1-.4-.9-1-1.4-1.2-1-.4-1.6 0-1.9-.8-.4-1.4 1.9-2.5 1.9-3.7 0-.8-1.5-1.9-1.3-2.4.1-.7 1.7-.6 2-1.4.2-.6-.3-2.1-.3-2.8 0-1.1.7-2-.1-2.6-.5-.3-2.3-.1-3-.1-2.2 0-3.2 0-4.9-1.1-.6-.4-1-1.3-1.6-1.6-.8-.4-2-.2-2.4-1.1-.4-.8-.3-4.3-.3-5.1l.1-6.7c.2-1.3-.6-5.4.2-6.6.4-.5 4.4-.8 5.4-.4.4.2.7 1 1.5 1.4.7.2 4.4.3 5-.2.3-.3.5-5 .1-5.5-.2-.2-1.3-.3-1.7-.3-2.2-.1-3-.3-4.4-.7l-1.6-.2c-.3-.1-.6-.7-1-.9-.8-.4-3.3-1-3.6-1.7-.2-.4-.1-2.4.3-3 .4-.5 1.2-.2 2.3-.5.8-.3 1.5-1.1 2.3-1.1.6 0 1 .4 2.1.5 1.5.2 4.8.1 5.2-.4.4-.6-.2-2.1-.2-2.5 0-.9.8-2.3 0-2.9-.6-.4-2.3-.1-3.2-.1H6.5C5.7 66.6 5 66 4 65.6c-.9-.4-2.3-.6-2.7-1.2-.2-.4-.1-1.8-.1-2.6 0-2.2 0-2.3 1-2.9 1-.4 2.9-1.5 4.3-1 .4.1 1 1.3 1.5 1.5.9.2 5 0 5.2-.3.5-.5.1-5.4 0-5.4-.8-.9-3.6.2-4.8 0-1.1-.3-2.4-1.7-4-2.2-.8-.2-2.7.2-3-.3-.4-.3 0-2.2 0-2.3 0-.6-.4-2 0-2.7.3-.6 4.1-1.4 5-1.2.6.1 1 1 1.6 1.2 1 .4 4.8 0 5-.2.3-.3.3-2.4.4-2.7 0-.7.2-2.4-.2-2.9-.6-.8-5 .2-6.3 0-.7 0-1.5-.5-2.7-.8-.6-.1-2.5-.2-2.7-.4-.5-.4-.3-1.4-.3-2.2 0-.8-.2-2.3 0-2.8.3-.5 1.8-.8 2.6-1 1.2-.6 2-1 2.7-1 .6 0 .9.4 1.7.5 1.1.2 4.3.1 4.8-.3.4-.4.1-2 .2-3 .2-1.5.9-1.9.4-2.5-.3-.5-3.1-.5-3.9-.5-2.4 0-3.6.6-5.5-.2-.7-.2-2.4-1.3-2.6-1.9l-.3-3.8c1-3.4 11.3.2 12.3-2.1.2-.5-.5-1.7-.5-2.6 0-1 .5-2.1.1-2.6-.3-.3-3.5-.5-5-.4-.5 0-1.3.5-1.7.4-.5 0-1-.6-1.8-.9-1.1-.4-2.3-.2-2.8-.8-.7-.8-.6-3.6-.6-5 .1-1.3.2-6 1.1-6.5h243.8v327.6H10.4zM5 206.6c.2.5 0 1.9.3 2.6l.4.6 1.5.3H11c1.9 0 3.7-.3 3.6-2 0-.3-.5-1-.5-1.7s.5-1.6 0-2.1c-.4-.4-4-.5-5.6-.2-.4.2-.8.6-1.2.7-1.5.5-3 .4-3 1.2 0 .4.5.3.6.6zm1 42.8c.5.4-.2.6.3.7h3.4c1.5 0 4.1.3 4.8-.3.2-.2.5-3.7.4-4.3l-.6-1c-.6-.5-4-.4-4.8 0-.4 0-.5.6-.9.9-.5.5-2.8.1-3.2 1-.1.1.3 0 .4.5l-.1 1.2c-.3.3-.6 0-.7.3l.1.8c.4.6.6-.1 1 .2zm.9-82.2l.3 1.3c.5.5 5.8.6 6.6 0 .7-.4.3-1.8.2-2.5 0-.9.4-2.2.2-2.7-.6-1.3-5.3-.4-6.8-.3-1.8.2-1.8.1-1.6 1.5.1.7.8 2 1 2.7zM6 154.4c1-.2 1.7.6 3 .7 1 0 3 .2 4-.2 1.8-.6.3-2.1.4-3.5.1-.7.8-1 .6-1.7-.3-1-2.9-1-4.7-.8-.8 0-3 .2-3.4.8-.5.7.2 1.7.1 2.8 0 .7-.7 1.6-.3 2l.3-.1zm.4 157.9c.2.7 1 1 1.5 1.8.4.8.5 1.6 1 1.9.4.2 4 .2 5.2 0 2.3-.6.7-2.2.6-3.4-.1-.5.6-2 0-2.5-.3-.3-1.2 0-2 0-.5 0-1.3-.2-2.1-.1-2.2.2-3.1.2-4.5-.3 1.3.7.1 1.7.3 2.6zm1-216.9c0 1-1.7 3.8.2 4.4.9.2 2.3-.2 2.7-.2.5 0 2 .6 2.9.2 1-.6.1-2.5.1-3.3 0-.6.3-1.2.3-1.6-.3-1.8-3.4-1-5.2-1-.5-.1-1-.5-1.7-.3l.7 1.8zM8.3 263c.4.3 1.6 0 2.7 0 .3 0 3 .3 3.5-.2.6-.6-.2-3.3-.1-4.2 0-1.8-.6-1.1-2.5-1-1.4 0-3.9-.4-4.2 1l.2.6c0 1.3 0 3.4.4 3.8z"/>
    <path fill="#E47274" d="M30 318.4h1.1V9H30z"/>
    <path fill="#9CC8D4" d="M22 9.3V9h214.5v.3H22M22 17.3h214.5V17H22zM22 26.3h214.5V26H22zM22 35.3V35h214.5v.3H22M22 43.3V43h214.5v.3H22M22 52.3h214.5V52H22zM22 60.3h214.5V60H22zM22 69.3h214.5V69H22zM22 78.3V78h214.5v.3H22M22 86.3V86h214.5v.3H22M22 95.3h214.5V95H22zM22 103.3v-.3h214.5v.3H22M22 112.3v-.3h214.5v.3H22M22 121.3h214.5v-.3H22zM22 129.3h214.5v-.3H22zM22 138.3h214.5v-.3H22zM22 146.3v-.3h214.5v.3H22M22 155.3h214.5v-.3H22zM22 164.3h214.5v-.3H22zM22 172.3h214.5v-.3H22zM22 181.3v-.3h214.5v.3H22M22 189.3v-.3h214.5v.3H22M22 198.3v-.3h214.5v.3H22M22 206.3v-.3h214.5v.3H22M22 215.3h214.5v-.3H22zM22 224.3h214.5v-.3H22zM22 232.3h214.5v-.3H22zM22 241.3h214.5v-.3H22zM22 249.3v-.3h214.5v.3H22M22 258.3h214.5v-.3H22zM22 267.3v-.3h214.5v.3H22M22 275.3v-.3h214.5v.3H22M22 284.3h214.5v-.3H22zM22 292.3v-.3h214.5v.3H22M22 301.3v-.3h214.5v.3H22M22 310.3v-.3h214.5v.3H22M22 318.3v-.3h214.5v.3H22"/>
    <path fill="#9CC8D4" d="M236 318.6h.3V9h-.3zM227 318.6h.3V9h-.3zM219 318.6h.3V9h-.3zM210 318.6h.3V9h-.3zM202 318.6h.3V9h-.3zM193 318.6h.3V9h-.3zM185 318.6h.3V9h-.3zM176 318.6h.3V9h-.3zM167 318.6h.3V9h-.3zM159 318.6h.3V9h-.3zM150 318.6h.3V9h-.3zM142 318.6h.3V9h-.3zM133 318.6h.3V9h-.3zM124 318.6h.3V9h-.3zM116 318.6h.3V9h-.3zM107 318.6h.3V9h-.3zM99 318.6h.3V9H99zM90 318.6h.3V9H90zM81 318.6h.3V9H81zM73 318.6h.3V9H73zM64 318.6h.3V9H64zM56 318.6h.3V9H56zM47 318.6h.3V9H47zM39 318.6h.3V9H39zM30 318.6h.3V9H30z"/>
  </g>
</svg>
