<svg version="1" xmlns="http://www.w3.org/2000/svg" width="482" height="482"><path d="M424 50c-21-14-44-21-68-24-23-3-48-2-71 2 44-6 91 0 128 26 32 23 52 61 54 100s-16 79-46 104c-18 15-41 25-65 29-26 3-47-3-70-13-10-4-18-16-27-24-9-10-18-18-24-27 5-6 17-9 28-10 6-1 17-6 30 2 4 2 7 7 12 7 2 0 5-2 5-6 0-5-12-4-16-6-4-3-7-4-7-9 1-5 8-6 16-8 6-1 13 1 17-2 2-2 4-7-3-12-3-2-7-1-12 5-4 5-11 7-17 7-12-3 13-26 11-33-2-6-8-6-9-6-11-1-1 35-15 32-2 0-4-16-4-18-1-5-1-11-3-13-8-3-10 4-9 7 0 5 8 13 9 19s-4 8-7 5-5-10-9-9c-3 1-6 6-3 10 4 4 11 2 16 8 4 3 2 9-1 11-15 6-49 0-54 15-2 7 3 17 7 23 4 7 9 12 13 17-2-3-10-4-13-6-12-6-23-12-32-21-3-3-17-17-9-21 7-4 13-2 19-4 8-3 15-12 22-19 6-6 15-19 20-20s14 5 17 4c1-1 3-5 0-10-2-2-6 1-10 2-3 1-8 2-9-2 3-9 22-13 24-16s-3-10-7-8c-6 1-16 22-21 18-6-4 10-18 8-24-1-4-7-5-11-4-4 2 1 19-4 25-3 1-4 1-6-1-3-4-5-15-12-14-3 1-5 6-4 9 2 3 12 3 12 9 1 5-2 7-6 7-3 0-16-9-17 1s13 3 15 3c11 2 0 22-5 25-9 7-27 8-38 3-5-2-8-7-12-9-5-2-22-1-26-3-15-5-16-35-24-48-13-23-46-34-78-38-8-1-22 1-23 12s7 25 12 35c9 17 21 32 38 41 17 8 40 7 41 32 0 16-5 31-6 50-11-2-26-16-23-33 1-6 5-7 8-12 1-6-4-8-7-4-3 5-2 14-7 14-13 2-1-22-4-25-4-3-9-5-11 2-1 4 11 20 1 22-11 1-8-18-16-18-6 0-5 5-4 7l10 11c3 3 4 5-2 9-8 1-25-8-23 2s15-3 22 3c2 4 3 7 2 11-3 7-18 4-13 14 9 3 12-9 17-10s13-3 19-2c12 2 20 25 35 24 7-4 4-32 16-34 6 0 10 5 13 9 26 27 61 48 98 55 8 2 18 3 21 12 6 17-1 71 13 75 13 4 47-3 52 5 9 14-20 5-24 10s-3 9 3 10c5 1 15-9 24-4 10 5-27 15-26 22 1 3 3 8 9 6s16-21 21-19c6 2 0 20 0 24 0 3 4 6 10 5 8-2-10-30 5-34 4-1 8 10 10 16s3 11 9 12c4 0 8-8 7-12s-23-17-20-25c1-5 11-4 20-2 5 1 10 6 15 6 4-2 7-12 1-15-5-2-18 4-27 1-7-2-10-9-17-11-16-6-37 2-50-9 2-15 1-33 3-49 1-9 8-10 16-11 53-3 114-15 152-56a153 153 0 0 0 20-177c-10-17-23-32-39-42z"/></svg>