<?xml version="1.0" encoding="UTF-8"?>
<svg xmlns="http://www.w3.org/2000/svg" width="438" height="584" version="1">
  <g fill="none" fill-rule="evenodd" stroke="#000">
    <g stroke-width="8">
      <path d="M432 498c3-14 0-28-9-31m9 32c4-15 1-29-10-31m1-1c-9-3-20 7-24 21m22-20c-7-5-17 6-23 21m0 0c-3 14 1 27 10 31m-10-31c-3 14 0 28 10 31m0 0c10 1 20-8 24-22m-25 22c10 2 20-8 24-22m0 0h1m-1 0h1"/>
      <path d="M306 394c37 37 73 78 99 108m-97-109l98 108"/>
    </g>
    <g stroke-width="8">
      <path d="M190 510c9 12 21 19 29 14m-29-15c8 13 20 20 29 14m1 1c8-5 7-19 0-32m0 30c8-2 7-17 0-31m0 0c-8-12-20-18-30-14m30 14c-8-12-20-19-30-14m0 0c-7 6-7 20 0 33m1-33c-8 5-7 19 0 32m0 0l-1 1m1-1l-1 1"/>
      <path d="M310 388c-34 37-65 75-95 106m95-106l-95 108"/>
    </g>
    <g stroke-width="8">
      <path d="M400 336c14 5 28 4 32-4m-33 3c15 6 28 5 33-5m0 1c4-9-4-20-17-27m17 25c5-6-4-18-18-26m0 0c-13-6-26-3-32 5m32-5c-13-5-27-4-32 5m0 0c-3 9 5 21 18 28m-17-29c-5 10 4 21 17 27m0 0v2m0-2v2"/>
      <path d="M306 241c40 25 83 54 103 69m-104-70l106 71"/>
    </g>
    <g stroke-width="8">
      <path d="M208 335c13-7 21-18 17-27m-18 28c14-7 22-18 17-28m1-1c-4-8-18-9-32-4m31 4c-2-8-17-8-32-3m0 0c-13 6-19 18-16 28m16-28c-13 6-21 18-16 28m0 0c5 8 18 9 32 3m-33-4c4 9 19 9 32 4m0 0h1m-1 0h1"/>
      <path d="M303 233c-29 16-60 39-114 77m114-78c-38 24-75 50-116 77"/>
    </g>
    <path stroke-width="8" d="M305 195c-2 78-1 157-1 199m-1-199v197"/>
    <path stroke-width="8" d="M305 196c28-3 52-26 53-55m-54 55c29-3 53-24 53-59m0 0c0-29-24-51-52-53m50 52c4-27-21-48-52-53m0 0c-27 0-48 26-51 58m53-58c-29 1-52 24-53 57m0 0c2 31 25 55 55 56m-54-57c0 32 24 53 51 54m0 0l1 3m-1-3l1 3"/>
    <g stroke-width="8">
      <path d="M306 9C236 4 163 5 65 4m240 7C240 5 177 5 65 7"/>
      <path d="M303 81l-2-78m2 78c1-17-1-33-1-79"/>
    </g>
    <g stroke-width="8">
      <path d="M64 579c0-161 0-326 5-573m-2 574c-3-183-2-367 1-572"/>
      <path d="M3 573c30 11 63-7 120 3M1 580c40-7 80-7 124-10"/>
    </g>
    <g stroke-width="4">
      <path d="M272 111c6 7 14 14 18 21m-16-20l17 21"/>
      <path d="M291 111c-6 8-12 16-18 21m18-19l-19 20"/>
      <g>
        <path d="M316 111c6 7 14 14 18 21m-16-20l17 21"/>
        <path d="M335 111c-6 8-12 16-18 21m18-19l-19 20"/>
      </g>
    </g>
  </g>
</svg>
