<?xml version="1.0" encoding="UTF-8"?>
<svg xmlns="http://www.w3.org/2000/svg" xmlns:xlink="http://www.w3.org/1999/xlink" width="245" height="211" version="1">
  <defs>
    <path id="a" d="M79 206H10V78H0L109 0l109 78h-10v128h-68v-46c0-15-14-27-31-27-16 0-30 12-30 27v46z"/>
  </defs>
  <g fill="none" fill-rule="evenodd">
    <g transform="translate(4 3)">
      <mask id="b" fill="#fff">
        <use xlink:href="#a"/>
      </mask>
      <path stroke="#5879FF" stroke-width="3" d="M1 0v1m0-1v1m8-1L0 9m10-9L1 10M18 0L1 18M18 0L1 18M27 1L0 27M26 0C17 11 8 21 1 27M34 1L1 36M34 1L1 36M43 0L1 45M43 0L1 44M51 1L0 53M52 1C38 13 25 26 1 53M60 1C39 21 19 43 1 62M60 1L0 62M69 0L0 71M69 0L1 71M77 1L1 80M77 1L1 79M85 0L0 88M85 0L1 88M94 1C74 20 55 40 1 97M93 1C71 23 49 45 1 97M102 1C71 31 42 62 0 105M102 1L1 106M111 1L1 114M111 0L1 114M118 1L1 123M118 0L1 123M128 1L1 131M127 0L0 132M135 0C97 43 57 84 1 140M135 0L0 140M144 1L1 149M144 0C100 48 55 95 0 149M153 1C92 62 32 124 1 157M153 1L0 157M161 0L0 166M161 1C104 59 48 116 1 166M169 1C118 52 68 103 1 175M169 1L1 175M178 0L0 183M177 0L1 183M187 1L0 193M186 1L1 192M194 0L1 201M194 1C130 69 64 138 1 201M202 1C154 49 106 99 4 206M203 1C142 62 81 126 4 206M211 0L13 206M211 0C134 81 57 161 12 206M218 2C140 84 62 165 20 206M219 2C156 69 92 135 20 206M219 10C145 88 71 165 29 207M218 10C145 85 73 159 29 207M219 19L38 207M219 19C146 92 74 166 37 206M218 27C167 83 113 138 45 206M218 27L46 207M219 36c-37 40-75 79-165 171M218 36L54 206M218 45L62 206M218 45L63 206M219 54L71 207M218 54L71 206M218 63c-37 36-72 74-139 144M219 63c-33 31-64 63-140 144M218 72L88 207M218 71L88 206M218 80c-45 45-90 91-122 127M219 80L96 207M218 88c-33 37-67 72-113 118M219 88c-27 30-55 60-114 118M218 98c-34 37-72 75-105 109M218 98L113 206m105-100l-96 100m96-100l-97 101m97-93l-88 92m88-91l-88 91m89-83c-16 18-33 34-81 83m80-82l-80 82m80-74l-72 75m73-75l-72 74m72-65c-19 21-40 41-64 65m63-65l-63 66m63-57l-55 57m56-58l-56 57m56-47l-47 47m47-48l-47 48m46-39l-37 40m37-40c-14 16-29 31-38 39m39-30l-31 31m31-32l-31 32m30-22l-21 21m22-22l-22 23m21-14l-13 13m14-13l-14 13m13-5c-1 2-1 3-4 5m4-5l-4 5" mask="url(#b)"/>
    </g>
    <path stroke="#030092" stroke-width="5" d="M92 208l-69-1m70 1H24m0 0L23 80m1 128V81m0-1H13m11 0H14m0 0C44 57 76 35 122 2M13 80C49 55 85 30 122 2m0 0l108 79M122 2c35 27 71 52 109 79m0 0l-10-1m9 1h-10m0-1v127m7-125c-4 47-4 93 0 127m-6-2l-68 1m68 0c-18-2-36-1-69 0m1-1l-1-45m-3 46l8-46m-4-1c-1-15-14-27-30-27m22 30c2-14-10-28-25-31m3 2c-17 0-31 12-30 27m30-27c-17 0-31 12-32 28m0-1c0 15 2 30 0 46m0-46l1 45m0 1"/>
    <g stroke="#030092" stroke-width="4">
      <path d="M1 86c57-8 118-18 243-3M1 80c50-6 100-6 243 7"/>
    </g>
  </g>
</svg>
