<?xml version="1.0" encoding="UTF-8" standalone="no"?>
<svg xmlns="http://www.w3.org/2000/svg" xmlns:cc="http://web.resource.org/cc/" xmlns:dc="http://purl.org/dc/elements/1.1/" xmlns:inkscape="http://www.inkscape.org/namespaces/inkscape" xmlns:rdf="http://www.w3.org/1999/02/22-rdf-syntax-ns#" xmlns:sodipodi="http://sodipodi.sourceforge.net/DTD/sodipodi-0.dtd" width="522" height="464" version="1" inkscape:output_extension="org.inkscape.output.svg.inkscape" inkscape:version="0.45.1" sodipodi:docbase="C:\Users\symode09\Desktop" sodipodi:docname="drawing.svg" sodipodi:version="0">
  <sodipodi:namedview width="522" height="464" bordercolor="#666666" borderopacity="1" gridtolerance="10000" guidetolerance="10" objecttolerance="10" pagecolor="#ffffff" inkscape:current-layer="layer1" inkscape:cx="375" inkscape:cy="229" inkscape:document-units="px" inkscape:pageopacity="0" inkscape:pageshadow="2" inkscape:window-height="575" inkscape:window-width="765" inkscape:window-x="23" inkscape:window-y="23" inkscape:zoom="1"/>
  <metadata>
    <rdf:RDF>
      <cc:Work>
        <dc:format>
          image/svg+xml
        </dc:format>
        <dc:type rdf:resource="http://purl.org/dc/dcmitype/StillImage"/>
      </cc:Work>
    </rdf:RDF>
  </metadata>
  <path d="M178 451c-3-4-6-21-7-37-2-17-2-31-3-63l-1-48h-4a435 435 0 0 1-30-3 20775 20775 0 0 1-102-9l-10-3 11-2a1537 1537 0 0 1 128 0h6v-2a11234 11234 0 0 0-5-103h-36a1679 1679 0 0 1-93-3c-7 0-9-1-11-2-1-1 0-2 1-3v-6l-1-2 1-2 11-3 11-1 66-2h24l-9-7a451 451 0 0 0-9-7l-6 3c-5 3-13 5-21 6H71a40 40 0 0 1-10-3c-11-5-18-16-20-30v-12a62 62 0 0 1 9-26 123 123 0 0 0-9-10 328 328 0 0 0-9-9 178 178 0 0 1-22-32c-3-8-6-15-6-20 0-3 1-4 4-3 2 1 3 2 4 1l1-1 1-2h2l2 1 2 3a171 171 0 0 0 22 31 510 510 0 0 0 25 24l6-3a39 39 0 0 1 10-3h12l14 5 2 3c0 1 0 2-2 3l-2 5v3l-1 1 2 1c6 7 11 14 15 22 3 6 5 13 5 19v1l5 4a476 476 0 0 1 26 23v-4a2588 2588 0 0 1 0-95c0-5 2-6 4-5l3 1 3-1 3-1 3 4c4 10 6 40 8 109v1l32 1a8223 8223 0 0 1 105 1l1-3a2283 2283 0 0 1 9-100 316 316 0 0 1 5 53 2132 2132 0 0 1 2 51h4a656 656 0 0 1 51 2 323 323 0 0 0 31-1 38 38 0 0 1-4-2 192 192 0 0 1-21-18l-4 3a169 169 0 0 1-23 10c-9 3-18 3-20 0h-1c0-1 2-3 5-4a176 176 0 0 0 29-22l-3-3a219 219 0 0 1-25-34c-5-10-7-19-5-22l5-2h4c5-2 6-2 9 0l7 12a293 293 0 0 0 25 35 120 120 0 0 0 12-10 170 170 0 0 0 7-6 584 584 0 0 1 32-23h6l1 3 3 5c2 2 2 3 2 5s-1 4-6 8a112 112 0 0 1-12 11 363 363 0 0 1-32 24l3 4a333 333 0 0 1 18 26l1 2h10a789 789 0 0 1 55 5 112 112 0 0 1 8 2l6 3-1 1-10-1h-14a466 466 0 0 0-66 3 2178 2178 0 0 1-87 3v4a2846 2846 0 0 1 3 86l1 21 4 1a5551 5551 0 0 1 172 10c3 1 4 2 2 5-2 2-2 3 0 5v4c-3 3-23 4-68 3a1881 1881 0 0 1-103-4h-2l2 2a2272 2272 0 0 0 32 29l2 1 1-1a46 46 0 0 1 22-10h8l8 1a36 36 0 0 1 14 5l3 4-2 3-1 2-1 4a120 120 0 0 1 11 6l10 8c4 4 6 6 8 11 6 12 5 25-4 36l-1 2 4 3a416 416 0 0 1 21 24 56 56 0 0 1-12-7 9299 9299 0 0 0-19-14l-6 4c-5 4-14 8-23 11a123 123 0 0 1-38 4c-6-1-11-5-15-10-5-6-7-12-8-21l-1-13a75 75 0 0 1 11-39v-1l-1-1a66 66 0 0 0-5-4 40 40 0 0 0-3-3l-19-15 1 12a1075 1075 0 0 0 12 89v5c-1 1-1 2-3 1h-4l-1 1-3 2-3-1c-4-5-10-25-15-52-4-21-7-48-9-73v-5l-1-1-1-1a1030 1030 0 0 0-69-4 7088 7088 0 0 1-62-4l-1 14a2587 2587 0 0 1-5 112 631 631 0 0 1-2 21zm229-31a84 84 0 0 0 31-9l-6-4a496 496 0 0 1-41-34l-1 2a61 61 0 0 0-6 33l3 10 3 3a101 101 0 0 0 17-1zm40-16l5-11-2-10a33 33 0 0 0-5-7 78 78 0 0 0-24-19h-3c-6 0-11 1-16 3l-2 2a1336 1336 0 0 0 47 42zM289 289a1231 1231 0 0 1-30-26h-3a78 78 0 0 1-12 6l-15 3-11-2c-11-4-18-13-20-25-1-4 0-11 1-15a57 57 0 0 1 5-13l-1-1-3-3a457 457 0 0 1-15-12v19l1 47v19h4a1503 1503 0 0 1 99 3zm29-7a2365 2365 0 0 1 1-103 1479 1479 0 0 0-34 3c5 5 11 13 13 18 4 8 5 16 3 23a40 40 0 0 1-13 18 27 27 0 0 1-2 2 295 295 0 0 1-10 8l3 3a539 539 0 0 1 39 35v-7zm-84-32l7-2-2-1-1-1a76 76 0 0 0-4-4l-12-9-1 5c-1 4 0 8 2 10a11 11 0 0 0 6 2h5zm31-14l10-6c7-5 11-9 13-13l1-6-10-26-3-5h-10a5656 5656 0 0 1-68 2 145 145 0 0 0 5 5l8 7 8 6a137 137 0 0 1 9-6l14-7 3-1a61 61 0 0 1 13-2c11 0 20 1 21 4v4 8l-1 1a8056 8056 0 0 0-30 8l-11 7h-1l1 1a80 80 0 0 0 5 4 207 207 0 0 1 13 11l6 6 4-2zM90 132a51 51 0 0 0 11-2h1l-1-1a351 351 0 0 0-13-11 353 353 0 0 1-21-20l-2 9-1 7c0 5 0 6 2 9l4 7 6 2h14zm20-28L99 82l-2-3h-2a34 34 0 0 0-11 2l7 8a418 418 0 0 0 19 15zm105 329h-3a36 36 0 0 1-7-3l-7-6c-8-8-13-18-12-29 0-11 3-21 11-31l6-7a69 69 0 0 1 36-19 68 68 0 0 1 14 0h2l-1-2v-3l6 3a71 71 0 0 1 6 5 30 30 0 0 1 10 7c3 2 3 3 1 5l-1 1 1 1a1883 1883 0 0 0 5 11 45 45 0 0 1 3 28c-2 6-6 12-12 17a2174 2174 0 0 0-16 11 155 155 0 0 1-23 10 55 55 0 0 1-19 1zm12-21a78 78 0 0 0 20-6 162 162 0 0 0 18-10l5-7c3-6 3-15-1-25-1-2 0-2-4-3h-4l-10-1a35 35 0 0 0-13 2l-8 4a86 86 0 0 0-7 5l-6 5c-4 5-7 11-8 17v8l5 9 6 3 7-1zM36 399v-3c0-3 3-7 6-11a93 93 0 0 1 16-16l12-9-1-2-9-13-3-9-1-5 2-6 1-1h10l4 1c2 0 3 2 5 5a158 158 0 0 0 13 17l1-1a154 154 0 0 1 19-10l5-2a259 259 0 0 1 23-8l8-1h10c1 1 2 2 1 5v6c1 4 0 6-2 7-2 2-3 2-9 4a214 214 0 0 0-20 8 184 184 0 0 0-20 8l4 4a405 405 0 0 1 20 21c4 5 6 9 5 11h-2l-6-2a323 323 0 0 1-42-24 284 284 0 0 0-45 25l-3 1h-2zm74-120l-3-2a93 93 0 0 0-13-11 1039 1039 0 0 0-29-20 634 634 0 0 0-53 23c1-3 3-7 7-11a125 125 0 0 1 28-23l3-2-1-1c-4-4-9-11-11-16l-2-11 1-4c1-2 1-2 5-2l5-1h3c2 0 3 0 4 2l4 5a137 137 0 0 0 12 15v1l1-1a160 160 0 0 1 13-7 2026 2026 0 0 1 47-22c5-1 7-1 8 3l4 5 1 4c0 3-2 6-9 10a22 22 0 0 1-3 2l-19 10-26 12 6 6 12 13c4 5 6 10 7 14l1 8-3 1zm269-8c-5-1-9-3-12-6s-5-6-6-10v-10a55 55 0 0 1 17-27l7-7a82 82 0 0 1 17-9l9-3 9-1c5 0 9 0 15 2l10 5c2 2 1 4-1 6l-1 2v1l4 3v10c-1 4-5 10-8 14a100 100 0 0 1-13 12l-2 2a155 155 0 0 1-21 12 86 86 0 0 1-14 4h-10zm10-20a61 61 0 0 0 17-5l3-1a152 152 0 0 0 22-14l7-6 3-6v-1l-1 1-9 1h-7l-3 1-9 2-9 5c-9 5-17 14-20 21v2h6zM267 148c-5 0-16-6-25-12-6-4-13-8-15-11l-2-1-1 1-16 8c-7 4-8 4-8 1-1-4 3-11 10-18l3-2-4-4-11-13-9-17c0-3 1-4 5-6l4-2 5-2c2 0 5 1 8 5a703 703 0 0 1 20 25l3-2a418 418 0 0 1 27-15c11-6 15-8 18-7l3 4 3 3 3 6c0 3-3 6-9 10a151 151 0 0 1-29 15l-5 2 2 2a6277 6277 0 0 0 23 26v4h-3z" inkscape:groupmode="layer" inkscape:label="Layer 1"/>
</svg>
