<?xml version="1.0" encoding="UTF-8"?>
<svg xmlns="http://www.w3.org/2000/svg" width="274" height="379" version="1">
  <g fill="#000" fill-rule="evenodd">
    <g fill-rule="nonzero">
      <path d="M207 354c-1-3-5-4-7-2a5 5 0 0 0 2 10l3-1c3-1 4-5 2-7z"/>
      <path d="M256 174a136 136 0 0 0-187-51 136 136 0 0 0-51 188 137 137 0 0 0 168 59 5 5 0 1 0-4-10c-42 16-87 9-121-17l5-25h3c8-3 13-13 10-21l-1-6v-3a17 17 0 0 0-13-22l-12-2-23-18-5-1-14 5v-15a31 31 0 0 1 2 2l4 2 10-1a545 545 0 0 0 13-5v-5l-7-10 9-6 2-2 14-25 6-7c6-6 8-16 5-24-2-5-6-8-10-11a127 127 0 0 1 77-27l-10 12-35 12-4 3-10 24 1 5 15 21c-3 1-5 4-7 8l-3 3-1 2-9 12c-5 11-4 23 3 33a30 30 0 0 0 33 11c5-1 6-2 8 0v3l1 5 4 8 2 2c2 4 1 6 0 11l-1 1c-2 8 1 15 4 22l3 6c5 14 8 17 11 19l5 1c7 0 15-8 19-12l3-8 1-2 2-2 4-8c1-3 2-3 4-5l1-2c7-7 5-13 3-20-1-5 2-8 9-15 3-3 6-5 8-9 1-1 4-6 2-11-2-4-7-5-10-6l-5-1c-3-2-5-6-7-11l-2-2-2-5c-2-5-4-11-8-15-3-4-9-5-15-7l-5-1-3-1-6 3-2 2-6-3v-1-5c-3-6-13-6-15-5h-12c2-5 7-9 13-9h3a5 5 0 0 0 0-11h-3c-8 0-16 5-20 12l-8-11 7-19 35-13 2-1 16-20a126 126 0 0 1 110 94l-2 2a14 14 0 0 0-5 10l-4-10-2-4-7-8c-2-3-6-5-10-5h-8a8 8 0 0 0-6 12v2c-5 4-11 8-17 10l-11-21v-5l-2-4-10-9-2-1-9-4a5 5 0 1 0-3 11l7 2 8 7v4l1 3 13 26c2 3 4 4 7 3l4-2c9-3 18-9 25-16 2-2 2-4 1-7h-1 3l2 1 7 8v1l7 20a5 5 0 0 0 9 2l4-4 4-8c6 43-11 87-47 115a5 5 0 1 0 7 9 137 137 0 0 0 34-176zM25 256l22 17 3 1 13 3c2 0 3 1 4 3v4 11l2 5c1 3-1 6-4 7l-5 2-4 4-4 23a128 128 0 0 1-40-75l13-5zm31-85l-6 7-1 1-14 25-13 9c-2 1-2 5-1 7l5 7-7 1a86 86 0 0 0-7-6c5-27 18-52 38-72 4 2 7 5 9 8 2 5 1 10-3 13zm44 29l12-1a98 98 0 0 0 7-1 5 5 0 0 0 2 7l4 2c4 3 9 6 14 7 4 0 6-2 7-3v-1l2-1h2l11 4 5 11 3 6 1 3c2 5 5 11 11 15l9 3h1l-7 7c-6 7-15 14-11 26 2 6 2 7-1 10l-1 1-6 10-2 3-3 4-2 6-1 3-7 6-4 2c-1-1-3-3-6-13l-3-7c-2-5-5-10-4-13l1-2c2-5 3-10 0-18l-4-6-2-2v-3c0-3 0-7-4-11-6-6-13-4-17-3l-4 1c-8 1-15-2-19-8s-5-14-1-21c1-4 4-6 7-9l1-3 4-4 5-7z"/>
      <path d="M219 290l-3-10c0-2-2-4-4-4s-5 1-6 3l-1 3-3 5-3 2c-3 1-7 3-9 9v10c-2 4-5 12-1 18 3 5 7 6 9 6h2c5-1 9-7 13-18l6-21v-3zm-17 21c-1 6-3 8-4 10v-1c-1-1 0-5 1-7h1v-9-3l4-2 2-2-4 14zM144 168c-3-1-6 1-7 4-1 2 1 6 4 7h2c2 0 4-1 5-4 1-2-1-6-4-7z"/>
    </g>
    <text font-family="ChalkboardSE-Regular, Chalkboard SE" font-size="144" letter-spacing="-32" transform="translate(0 -66)">
      <tspan x="65" y="163">?</tspan>
    </text>
    <text font-family="ChalkboardSE-Regular, Chalkboard SE" font-size="144" letter-spacing="-32" transform="translate(0 -66)">
      <tspan x="136" y="163">?</tspan>
    </text>
  </g>
</svg>
