<?xml version="1.0" standalone="no"?>
<!DOCTYPE svg PUBLIC "-//W3C//DTD SVG 20010904//EN"
 "http://www.w3.org/TR/2001/REC-SVG-20010904/DTD/svg10.dtd">
<svg version="1.0" xmlns="http://www.w3.org/2000/svg"
 width="260.000000pt" height="260.000000pt" viewBox="0 0 260.000000 260.000000"
 preserveAspectRatio="xMidYMid meet">
<metadata>
Created by potrace 1.11, written by Peter Selinger 2001-2013
</metadata>
<g transform="translate(0.000000,260.000000) scale(0.100000,-0.100000)"
fill="#000000" stroke="none">
<path d="M1000 1989 c-183 -49 -419 -164 -570 -277 -145 -108 -257 -241 -324
-383 -46 -97 -63 -178 -58 -270 2 -41 4 -87 4 -102 1 -16 4 -24 8 -17 10 15
23 -17 13 -33 -3 -7 -3 -9 2 -5 10 10 38 -29 31 -41 -3 -5 5 -16 19 -25 22
-14 24 -20 14 -38 -8 -15 -8 -19 0 -13 7 4 19 1 28 -7 14 -11 16 -11 9 1 -6 9
-5 12 5 9 8 -3 13 -10 12 -16 -4 -16 24 -3 31 13 3 9 -1 12 -14 10 -11 -2 -22
1 -26 7 -4 7 -9 6 -14 -2 -5 -9 -9 -9 -14 -1 -4 6 -2 11 5 11 7 0 -2 11 -21
25 -19 14 -29 25 -23 25 7 0 19 -7 27 -16 9 -8 20 -13 25 -10 5 3 14 -1 21 -9
7 -9 17 -12 24 -7 6 4 21 7 34 6 12 0 22 3 22 8 0 5 5 6 10 3 5 -3 10 0 10 7
0 9 3 9 10 -2 6 -9 10 -10 10 -3 0 6 19 25 43 41 23 16 59 40 79 54 20 14 35
28 33 32 -3 3 -2 4 1 2 3 -3 20 8 37 24 18 16 34 28 37 27 3 -1 20 12 38 28
32 28 45 34 40 18 -2 -5 -6 -7 -10 -6 -4 2 -4 -5 -1 -14 5 -13 2 -15 -11 -10
-11 5 -15 3 -10 -5 5 -7 3 -8 -6 -3 -9 6 -11 4 -5 -5 5 -9 4 -11 -3 -6 -8 5
-10 1 -5 -10 5 -14 3 -16 -11 -11 -11 5 -15 3 -10 -5 4 -7 3 -8 -4 -4 -7 4
-12 2 -12 -4 0 -7 -7 -9 -16 -6 -10 4 -13 2 -8 -6 5 -7 3 -8 -6 -3 -9 5 -11 4
-6 -4 4 -6 4 -10 -1 -9 -19 7 -12 -18 9 -31 20 -12 21 -12 6 1 -10 8 -15 18
-11 21 3 4 12 2 20 -4 9 -9 13 -8 13 0 0 6 -6 11 -12 11 -9 0 -8 3 2 10 9 6
17 5 22 -3 5 -8 8 -6 8 6 0 20 16 23 24 5 4 -9 5 -8 5 2 -3 38 0 41 24 29 12
-6 19 -8 15 -4 -8 8 52 55 70 55 16 0 6 -57 -18 -96 -13 -21 -61 -95 -106
-164 -76 -117 -87 -129 -160 -177 -146 -97 -226 -194 -228 -279 -1 -41 27 -90
45 -79 4 3 11 0 15 -6 5 -8 8 -8 14 0 8 13 40 4 40 -11 0 -6 -8 -4 -17 3 -14
12 -16 12 -8 0 6 -10 4 -12 -5 -6 -9 5 -11 4 -6 -3 5 -8 2 -10 -8 -6 -9 3 -16
11 -16 18 0 10 -20 -13 -20 -24 0 -3 15 -14 33 -24 l32 -17 -24 20 c-27 24
-16 28 16 6 14 -10 24 -12 28 -5 4 6 1 9 -6 8 -6 -2 -13 2 -16 9 -6 15 26 10
37 -6 5 -9 10 -10 14 -2 4 6 3 11 -3 11 -6 0 -8 7 -5 15 6 14 8 13 20 -2 13
-16 13 -15 3 10 -7 15 -16 27 -21 27 -5 0 -7 -4 -4 -9 4 -5 -1 -8 -9 -7 -21 3
-31 16 -13 16 17 0 74 50 70 62 -1 4 4 7 10 6 7 -2 12 3 10 10 -1 8 2 11 8 7
5 -3 19 -8 29 -10 15 -3 19 1 16 15 -2 10 3 21 11 24 11 4 14 1 9 -13 -3 -11
0 -23 6 -27 8 -4 9 -3 5 5 -4 6 0 23 9 37 9 14 14 28 12 31 -9 8 -67 -40 -60
-50 4 -6 1 -7 -7 -2 -9 6 -11 4 -5 -5 5 -8 4 -11 -3 -7 -16 11 9 56 27 49 8
-3 12 -1 8 5 -3 5 6 23 21 39 15 17 38 47 52 67 14 20 31 37 38 37 7 0 11 4 7
9 -3 6 5 19 17 30 12 12 18 21 14 21 -5 0 -3 7 4 15 7 8 16 13 20 10 4 -3 11
2 14 10 3 8 11 14 18 13 7 -2 12 3 10 10 -1 8 2 11 7 8 5 -4 11 -1 13 6 3 7 7
5 11 -6 4 -10 3 -15 -3 -11 -6 4 -9 1 -8 -7 2 -7 -3 -12 -10 -10 -8 1 -11 -2
-6 -9 5 -8 3 -9 -6 -4 -9 5 -11 4 -6 -3 5 -8 1 -10 -11 -6 -15 5 -16 4 -3 -5
13 -9 13 -11 0 -12 -8 -1 -19 -1 -23 0 -5 1 -5 -4 -1 -10 5 -8 3 -9 -5 -4 -10
6 -11 3 -1 -16 17 -32 22 -37 20 -19 -5 35 -1 43 15 30 13 -11 14 -10 9 4 -3
9 -2 16 4 16 6 0 12 -5 14 -12 3 -7 7 -5 11 6 4 10 3 15 -3 11 -6 -3 -10 -2
-10 4 0 15 18 23 25 11 3 -5 12 -10 18 -10 8 0 8 3 -1 9 -19 12 -19 15 1 35
10 10 15 21 12 24 -3 4 -10 0 -15 -8 -8 -13 -10 -12 -10 3 0 9 7 17 16 17 9 0
12 5 8 12 -4 6 -3 8 4 4 5 -3 12 -3 14 1 2 5 15 18 30 31 l26 24 41 -28 c46
-30 47 -31 26 -31 -8 0 -15 5 -15 10 0 6 -3 7 -6 4 -4 -3 -15 -2 -26 4 -16 8
-24 5 -44 -16 -13 -14 -28 -24 -32 -21 -4 2 -8 -11 -8 -30 0 -18 2 -31 5 -28
6 6 7 11 10 42 1 15 3 15 17 -3 16 -20 16 -20 10 2 -6 18 -4 21 14 18 11 -2
18 0 15 4 -2 5 6 9 20 9 16 0 22 -5 18 -12 -4 -7 -1 -6 9 1 8 7 18 10 21 6 4
-3 -1 -12 -11 -20 -13 -10 -14 -13 -2 -11 8 2 19 8 23 13 5 6 7 2 4 -10 -3
-16 2 -20 27 -22 18 -1 24 2 16 5 -8 4 -15 14 -15 22 0 8 -6 15 -12 15 -7 0
-13 3 -13 8 0 29 1 31 8 22 4 -6 14 -10 22 -10 8 1 23 -3 33 -7 11 -6 17 -5
17 4 1 8 7 5 15 -6 13 -17 19 -15 17 5 -1 3 11 5 26 4 15 -1 33 3 41 9 11 8
13 8 7 -1 -11 -19 2 -16 25 6 13 12 30 18 46 15 17 -3 22 -1 17 7 -4 7 -3 9 4
5 5 -3 12 -1 14 4 2 6 12 12 21 14 10 1 22 7 25 13 4 6 14 13 22 15 8 2 22 12
32 23 9 11 17 16 18 11 0 -5 11 3 25 18 14 16 30 24 37 20 8 -5 9 -2 5 9 -4
10 -2 16 6 14 7 -1 11 4 9 11 -1 9 2 11 10 6 18 -11 43 -47 40 -58 -2 -5 4 -6
12 -3 8 3 20 -1 27 -9 6 -8 14 -12 17 -9 3 3 11 0 19 -6 7 -6 13 -8 13 -4 0 4
7 2 15 -5 11 -9 15 -9 15 -1 0 7 10 10 25 7 16 -3 28 1 35 12 5 9 10 12 10 5
0 -7 9 -4 23 8 49 45 126 98 131 91 8 -14 -11 -35 -25 -28 -8 4 -6 1 4 -7 13
-11 15 -16 5 -20 -10 -4 -10 -7 1 -18 8 -8 11 -9 7 -2 -7 14 27 36 39 25 3 -4
5 0 3 8 -2 8 2 14 7 13 6 0 16 5 23 13 8 9 9 14 2 14 -6 0 -8 5 -5 10 4 7 12
7 25 0 15 -8 17 -6 13 10 -6 22 12 28 21 8 3 -7 3 -1 1 14 -2 20 1 27 13 27
35 0 57 8 57 22 0 8 8 13 18 13 9 -1 14 2 11 8 -3 5 0 15 6 24 10 11 16 12 27
3 11 -9 17 -9 26 0 9 10 8 11 -8 6 -17 -6 -17 -4 4 15 20 17 22 23 11 33 -10
10 -11 9 -5 -2 6 -10 4 -12 -5 -6 -9 6 -11 4 -5 -6 8 -12 6 -12 -9 0 -15 12
-17 12 -14 0 2 -9 -4 -13 -17 -11 -12 2 -16 0 -9 -5 9 -6 8 -11 -1 -20 -8 -7
-15 -9 -18 -5 -2 4 -2 1 -1 -6 3 -10 -2 -10 -19 -2 -22 11 -22 11 -2 -6 17
-14 17 -16 2 -11 -15 6 -16 4 -6 -14 10 -19 9 -20 -11 -9 -18 10 -21 9 -15 -1
5 -8 4 -10 -4 -5 -14 9 -43 -12 -35 -25 3 -5 0 -9 -6 -9 -7 0 -9 7 -6 16 3 9
2 12 -5 9 -6 -4 -8 -14 -5 -22 4 -9 2 -11 -6 -7 -7 5 -9 2 -5 -9 4 -11 2 -14
-9 -10 -8 3 -14 -1 -14 -8 0 -11 -3 -11 -10 1 -7 11 -10 11 -10 2 0 -7 -5 -10
-12 -6 -7 4 -8 3 -4 -5 4 -6 11 -9 16 -6 5 3 11 1 14 -4 3 -5 -1 -11 -9 -15
-8 -3 -19 3 -25 14 -8 15 -5 22 19 39 15 11 31 18 35 14 3 -3 6 0 6 8 1 12 86
84 100 84 6 0 9 2 75 59 22 19 43 32 47 30 4 -3 12 4 18 15 6 12 20 25 33 31
21 11 21 11 3 -4 -11 -9 -17 -16 -13 -16 4 0 0 -14 -8 -31 -12 -21 -21 -29
-33 -25 -15 5 -15 4 1 -8 15 -11 15 -16 5 -28 -7 -7 -14 -18 -15 -23 -2 -15
-102 -179 -186 -307 -68 -103 -82 -118 -153 -165 -171 -113 -253 -230 -224
-319 7 -19 17 -34 23 -35 7 0 29 -2 49 -4 27 -2 36 1 31 9 -4 6 2 4 12 -4 17
-14 18 -13 11 5 -4 11 -4 17 -1 13 7 -7 61 44 57 55 -1 4 4 6 10 5 7 -2 12 2
11 9 -2 8 4 10 14 6 10 -4 14 -2 9 5 -3 6 5 22 18 35 14 14 22 28 18 33 -4 4
-2 4 5 0 13 -7 6 -36 -9 -36 -5 0 -7 -4 -3 -9 3 -5 -6 -18 -20 -29 -20 -16
-22 -21 -10 -26 8 -3 14 0 12 6 -1 6 4 13 12 16 9 3 11 0 6 -8 -5 -8 -4 -11 3
-6 6 4 8 14 5 24 -6 15 -5 16 13 2 15 -11 16 -11 7 0 -19 21 -16 34 5 19 14
-11 15 -11 5 1 -19 21 -16 35 4 19 9 -8 14 -9 10 -2 -4 6 -4 13 0 16 5 2 3 2
-4 1 -9 -2 -23 16 -23 31 0 10 30 12 36 3 4 -6 3 -8 -4 -4 -6 3 -13 2 -16 -3
-4 -5 2 -8 11 -7 10 2 22 -2 26 -8 6 -7 7 -5 4 6 -3 9 -3 19 1 21 4 2 1 2 -6
1 -8 -2 -12 5 -10 19 5 31 17 48 30 41 7 -5 9 -2 5 8 -3 10 7 28 28 49 18 19
31 37 29 40 -2 4 3 12 11 19 8 7 15 9 15 5 0 -4 8 2 18 13 9 12 24 22 32 24 8
2 30 17 49 35 36 32 51 34 51 6 0 -12 -3 -13 -14 -3 -13 10 -14 7 -10 -14 2
-15 0 -26 -6 -26 -6 0 -9 4 -5 9 3 5 1 13 -5 16 -6 4 -9 1 -8 -7 2 -7 -3 -12
-9 -11 -7 2 -12 0 -11 -5 3 -15 -15 -42 -24 -36 -6 4 -6 9 2 14 9 5 9 9 1 14
-6 4 -11 2 -11 -3 0 -17 -4 -24 -25 -46 -18 -18 -22 -18 -33 -5 -11 13 -11 13
-6 -1 3 -10 -1 -19 -10 -22 -10 -4 -13 -13 -10 -24 5 -15 4 -16 -6 -3 -10 13
-11 13 -6 -2 4 -13 1 -16 -12 -12 -13 4 -12 2 2 -7 16 -9 21 -9 24 0 3 9 8 9
20 -1 13 -11 13 -8 -2 13 -15 25 -15 27 0 33 12 5 15 2 9 -11 -4 -13 -1 -12
15 5 12 12 26 19 32 16 7 -5 8 -2 3 6 -6 10 -4 12 8 7 10 -4 16 -2 14 6 -1 7
6 11 15 11 10 -1 17 1 16 5 -2 19 4 24 13 11 9 -13 10 -12 5 2 -5 16 4 23 26
19 4 0 5 5 2 13 -3 8 0 17 7 22 7 4 10 3 5 -4 -3 -6 -2 -14 4 -17 6 -4 10 -3
9 2 -4 22 2 35 15 30 9 -4 12 2 10 19 -1 13 2 26 7 30 5 3 9 1 9 -5 0 -12 53
-7 57 6 2 5 -6 18 -17 28 -20 18 -21 18 -14 0 5 -12 4 -16 -4 -11 -8 5 -10 1
-5 -11 6 -16 5 -16 -10 -5 -14 12 -19 12 -32 -2 -9 -9 -14 -20 -10 -25 3 -5 1
-12 -4 -15 -5 -3 -12 2 -16 12 -6 16 6 29 60 70 50 37 222 178 227 187 4 5 8
20 8 33 0 20 -6 18 -72 -31 -103 -74 -205 -139 -212 -135 -2 2 -14 -6 -27 -17
l-24 -20 19 23 c11 12 15 22 10 22 -5 0 -1 5 9 11 9 6 15 13 13 17 -2 4 4 18
13 31 14 18 20 21 26 11 5 -9 4 -11 -4 -6 -6 4 -11 4 -10 -1 3 -19 -2 -34 -9
-29 -5 3 -9 -1 -9 -9 0 -10 4 -12 12 -5 7 5 16 6 20 2 5 -4 6 -2 2 3 -3 6 -2
17 3 25 5 8 5 21 0 30 -6 11 -2 26 11 46 11 16 27 43 35 61 9 18 32 44 51 59
l35 27 -6 -24 c-6 -20 -5 -21 4 -6 6 9 8 22 5 27 -3 6 1 13 10 16 13 6 14 8 3
15 -20 13 -31 11 -24 -7 4 -10 2 -13 -6 -8 -6 4 -8 3 -5 -3 8 -12 -20 -39 -30
-29 -3 3 -1 6 5 6 7 0 12 7 12 15 0 8 9 24 19 34 11 11 16 23 13 27 -4 4 -1 4
6 0 7 -4 10 -11 8 -15 -3 -4 1 -8 9 -8 11 0 10 5 -2 24 -14 21 -14 23 1 29 9
3 14 10 11 14 -3 5 -1 11 5 15 6 4 7 11 4 17 -4 7 -2 8 4 4 7 -4 13 -2 13 3 4
30 19 61 31 61 5 0 7 -4 3 -9 -3 -5 0 -13 7 -17 7 -4 10 -3 5 1 -4 5 1 17 10
28 10 11 13 17 6 14 -16 -10 -22 14 -10 38 6 11 12 25 13 30 1 6 3 15 4 20 9
41 -27 85 -70 85 -28 0 -65 -22 -91 -55 -34 -42 -67 -73 -164 -155 -55 -47
-102 -87 -105 -90 -9 -10 -154 -125 -210 -166 -124 -92 -212 -125 -243 -92 -7
7 -18 25 -24 40 -11 24 -10 26 5 21 15 -6 15 -5 2 11 -12 16 -12 19 3 28 10 5
14 14 11 20 -5 7 -2 8 5 4 9 -6 8 -13 -6 -29 -18 -21 -18 -21 2 -7 11 8 21 15
23 16 2 1 -2 12 -8 24 -9 18 -9 21 0 15 8 -5 11 -3 8 6 -3 8 5 30 18 50 13 20
21 38 19 41 -2 2 4 14 14 27 14 18 20 21 26 11 6 -9 4 -11 -5 -5 -9 5 -11 4
-6 -3 10 -17 23 -15 30 4 3 8 2 13 -2 11 -4 -3 -13 1 -20 9 -8 9 -9 14 -2 14
6 0 9 4 6 8 -3 5 15 29 39 54 24 25 41 49 37 53 -4 4 0 5 8 3 8 -2 14 3 13 9
-2 7 0 12 5 11 4 -1 21 11 37 27 52 51 100 90 107 88 4 -2 12 6 18 17 6 11 15
18 20 15 5 -3 12 1 17 9 4 8 15 16 23 18 8 2 21 11 28 20 12 16 15 17 37 2 13
-8 23 -21 21 -27 -1 -7 -1 -9 1 -4 3 4 10 4 16 0 7 -3 3 3 -7 15 -23 26 -11
29 17 5 11 -10 17 -13 14 -7 -8 14 18 38 32 30 5 -4 14 2 20 11 7 13 10 14 11
4 0 -8 3 -11 6 -8 4 4 1 13 -6 22 -11 13 -10 15 6 12 11 -1 25 -6 32 -11 9 -5
15 -1 19 14 4 14 8 18 13 10 5 -8 9 -7 13 5 5 10 3 14 -5 9 -6 -4 -8 -3 -5 3
3 5 0 10 -8 10 -8 0 -12 -4 -9 -8 2 -4 -5 -6 -16 -4 -11 2 -18 0 -15 -5 3 -5
-3 -7 -14 -5 -20 4 -36 -19 -32 -45 2 -10 -3 -8 -16 6 -10 11 -14 13 -8 4 5
-8 5 -12 1 -8 -5 4 -15 3 -23 -3 -7 -6 -13 -8 -13 -5 0 4 -9 2 -19 -4 -14 -7
-22 -7 -27 2 -4 6 -3 8 3 5 6 -4 14 0 17 9 3 8 10 13 15 9 6 -3 14 2 18 10 5
8 20 17 32 20 13 2 32 12 42 21 11 10 19 14 19 9 0 -4 7 -2 15 5 8 7 15 9 15
5 0 -5 9 0 20 10 11 10 20 15 20 10 0 -4 7 -1 17 6 20 17 16 17 37 0 14 -12
16 -12 9 4 -5 15 -3 17 11 12 10 -4 20 -7 24 -7 3 0 -25 -29 -63 -65 -77 -73
-70 -84 24 -37 31 16 62 27 70 24 9 -3 11 0 6 8 -5 8 -4 11 3 6 6 -3 15 2 21
11 6 10 11 14 11 10 0 -4 6 -3 13 3 6 5 36 29 65 51 31 25 52 48 52 60 0 11 4
18 9 15 5 -4 7 2 5 11 -2 10 -5 34 -8 53 -6 49 -14 67 -40 84 -89 58 -511
-103 -751 -285 -32 -24 -65 -49 -74 -56 -14 -10 -22 -6 -51 31 -21 25 -42 42
-52 40 -10 -1 -16 3 -15 8 1 6 -4 13 -12 16 -8 2 -11 1 -8 -4 3 -5 -19 -9 -49
-10 -56 0 -63 3 -23 12 40 9 54 12 54 14 0 1 8 3 18 5 9 2 17 -2 17 -7 0 -6
10 -3 22 8 12 10 18 13 14 7 -4 -7 -3 -13 1 -13 5 0 17 6 26 13 16 11 15 17
-12 74 -47 99 -104 122 -221 87 -29 -9 -77 -29 -105 -45 l-52 -29 -7 51 c-13
99 -67 118 -216 78z m-9 -233 c26 16 2 -15 -53 -67 -63 -60 -61 -77 4 -43 31
16 31 16 -11 -32 -59 -67 -154 -212 -180 -276 -19 -47 -38 -66 -149 -156 -209
-169 -295 -222 -355 -222 -19 0 -40 7 -47 15 -18 21 -25 95 -10 95 7 0 10 7 6
16 -5 12 -2 15 10 10 14 -5 15 -4 5 8 -9 11 -8 22 6 50 9 20 20 36 25 36 4 0
8 7 8 15 0 8 5 15 10 15 12 0 -4 -35 -20 -45 -6 -3 -10 -11 -10 -18 0 -6 7 -1
16 11 8 12 23 22 32 22 15 0 15 2 2 10 -13 8 -13 10 2 10 9 0 20 4 23 10 3 6
-3 9 -14 7 -11 -1 -19 3 -18 8 1 6 13 10 27 10 16 0 24 6 22 14 -2 8 3 11 12
8 10 -4 13 -1 9 8 -3 9 4 18 18 24 18 7 19 10 7 10 -20 1 -25 21 -5 21 7 0 18
-4 25 -10 9 -7 9 -7 2 2 -15 18 -12 28 5 22 8 -4 15 -2 16 2 0 5 2 17 4 27 3
15 1 16 -11 6 -7 -6 -11 -15 -8 -20 3 -5 2 -8 -3 -7 -17 5 -54 -24 -49 -38 4
-10 2 -12 -6 -8 -7 5 -8 3 -3 -6 5 -9 4 -11 -4 -6 -7 5 -10 2 -9 -6 2 -7 -3
-12 -10 -10 -8 1 -11 -2 -6 -9 5 -8 3 -9 -6 -4 -9 5 -11 4 -6 -3 4 -7 5 -12 2
-12 -17 0 -12 22 12 47 15 17 40 47 55 67 16 20 32 34 38 31 5 -4 9 1 9 9 0 9
5 16 11 16 5 0 7 6 3 13 -4 6 -4 9 1 5 5 -5 14 1 22 12 8 11 20 17 28 13 11
-4 13 -1 8 13 -6 16 -5 17 9 4 9 -8 14 -17 13 -20 -2 -3 0 -12 6 -20 6 -10 9
-11 9 -2 0 31 21 56 32 38 5 -8 12 -6 23 5 15 15 14 16 -12 13 -15 -1 -30 -3
-33 -4 -3 -1 -9 -2 -13 -1 -5 1 -5 -4 -1 -11 4 -7 3 -9 -1 -5 -12 10 -16 39
-5 32 5 -3 12 0 17 8 15 24 95 76 109 70 10 -4 13 0 8 13 -5 16 -4 16 5 4 9
-13 11 -13 11 3 0 9 7 17 15 17 8 0 15 3 15 8 0 6 56 44 70 47 3 0 15 6 28 13
12 7 22 10 22 7 0 -4 7 1 16 9 8 9 19 14 24 11 4 -3 11 2 14 11 3 8 10 13 15
9 5 -3 12 -1 16 5 4 6 10 8 15 5 5 -3 11 -1 15 4 3 5 14 8 25 6 11 -2 20 2 21
8 0 9 2 8 6 -1 2 -6 9 -10 14 -6z m1199 -82 c0 -8 -5 -12 -10 -9 -6 4 -8 11
-5 16 9 14 15 11 15 -7z m-700 -40 c3 0 13 -4 23 -9 14 -6 16 -10 6 -16 -10
-6 -9 -9 4 -15 15 -5 15 -9 5 -22 -9 -11 -9 -13 -1 -9 6 4 14 3 18 -3 3 -5 2
-10 -4 -10 -6 0 -8 -7 -4 -15 3 -9 -11 -39 -35 -73 -70 -101 -124 -227 -134
-312 -3 -32 -39 -82 -108 -150 -125 -125 -224 -185 -299 -182 -63 1 -81 4 -81
12 0 17 15 18 34 3 20 -17 20 -17 6 1 -13 17 -11 21 25 52 22 19 59 49 82 67
32 24 42 39 43 60 l0 28 -52 -39 c-94 -70 -172 -121 -177 -116 -3 2 -6 21 -8
42 -2 26 0 33 7 22 8 -13 10 -12 10 3 0 9 -6 17 -12 17 -9 0 -8 4 2 10 8 5 11
10 6 10 -5 0 -2 8 7 18 10 10 14 22 10 26 -4 4 0 4 10 0 9 -3 17 -10 17 -16 0
-5 -4 -6 -10 -3 -6 3 -7 -1 -4 -10 8 -20 17 -12 20 18 1 12 3 24 3 27 1 3 6
-2 12 -10 8 -12 9 -10 4 9 -5 15 -3 21 3 17 6 -3 13 -2 17 4 4 6 12 8 18 4 7
-3 3 2 -7 10 -11 9 -25 16 -30 15 -6 0 -5 -3 2 -6 6 -2 12 -9 12 -14 0 -6 -4
-8 -9 -4 -6 3 -15 -4 -21 -16 -7 -11 -14 -18 -17 -15 -4 3 2 15 13 27 10 12
18 24 18 28 -1 3 1 12 3 19 4 9 9 8 19 -5 13 -17 14 -17 7 2 -6 18 -5 19 12 5
17 -14 17 -14 5 7 -8 12 -19 19 -25 15 -11 -6 15 29 28 39 5 3 8 8 7 10 -4 9
24 59 33 59 5 0 3 -8 -4 -17 -8 -9 -9 -14 -2 -10 6 4 13 4 16 0 2 -5 2 -3 1 4
-4 14 12 27 19 16 2 -5 2 -2 0 6 -2 8 2 11 12 7 22 -8 18 2 -6 15 -13 7 -19 7
-15 1 3 -6 2 -13 -3 -16 -21 -13 -20 14 1 34 13 12 23 24 23 28 0 13 66 102
75 102 6 0 9 4 7 8 -3 12 63 73 74 67 16 -10 10 -26 -8 -23 -10 2 -18 -3 -18
-12 -1 -8 -6 -14 -13 -13 -7 2 -12 -2 -12 -7 0 -5 7 -10 15 -10 8 0 15 4 15 9
0 6 8 8 18 6 15 -2 18 3 17 24 -1 15 -5 33 -9 39 -5 8 -2 11 6 10 7 -2 12 2
11 9 -2 7 6 17 17 23 11 6 20 8 20 5 0 -3 10 4 23 15 27 27 62 47 53 31 -11
-17 3 -13 26 9 12 10 25 17 30 14 4 -3 8 -1 8 4 0 5 7 9 15 9 8 0 15 -4 15 -9
0 -4 5 -8 11 -8 5 0 8 4 5 9 -7 11 15 21 29 12 6 -3 12 -6 15 -7z m600 2 c0
-2 -6 -9 -14 -15 -11 -9 -16 -9 -22 0 -4 7 -3 9 4 5 6 -3 13 -2 17 4 6 10 15
14 15 6z m-1411 -523 c-12 -15 -12 -16 6 -10 19 7 19 6 3 -7 -19 -14 -25 -32
-8 -21 6 3 10 3 10 -2 -1 -8 -82 -63 -94 -63 -4 0 7 14 24 30 17 17 35 28 40
25 6 -3 7 1 3 10 -4 13 -8 14 -14 4 -4 -8 -11 -10 -16 -6 -4 4 6 19 22 32 35
29 42 31 24 8z m1116 -204 c-10 -15 -25 -10 -19 6 4 8 10 12 15 9 5 -3 7 -10
4 -15z m405 -149 c0 -5 -2 -10 -4 -10 -3 0 -8 5 -11 10 -3 6 -1 10 4 10 6 0
11 -4 11 -10z m-1390 -34 c0 -2 -7 -9 -15 -16 -13 -11 -14 -10 -9 4 5 14 24
23 24 12z m1240 -60 c0 -2 -8 -10 -17 -17 -16 -13 -17 -12 -4 4 13 16 21 21
21 13z"/>
<path d="M924 1738 c-3 -5 -9 -6 -14 -3 -5 3 -11 1 -15 -5 -4 -6 -10 -8 -15
-5 -4 3 -11 -2 -14 -11 -4 -9 -9 -14 -13 -10 -3 3 -15 -1 -25 -11 -10 -9 -18
-13 -18 -9 0 3 -11 -1 -25 -10 -14 -9 -25 -13 -25 -9 0 9 -82 -55 -99 -78 -7
-10 -19 -16 -27 -13 -7 3 -17 -2 -22 -10 -5 -9 -13 -16 -18 -16 -5 0 -8 -5 -6
-10 2 -6 -4 -8 -12 -5 -8 3 -24 -6 -37 -21 -13 -14 -17 -21 -9 -15 18 13 77
24 83 15 2 -4 2 -1 0 7 -2 8 2 11 12 8 8 -4 17 -1 21 5 4 6 3 8 -3 5 -11 -7
-28 22 -18 31 3 3 5 -1 5 -8 0 -7 3 -10 7 -7 3 4 12 2 20 -5 10 -8 17 -8 26 1
9 10 8 11 -8 5 -18 -7 -18 -6 -6 9 7 9 17 15 21 12 5 -3 12 0 15 6 4 5 13 8
21 5 9 -3 11 0 7 11 -4 11 -2 14 5 9 8 -5 10 -1 5 11 -6 16 -4 16 17 -2 13
-11 20 -14 16 -7 -4 6 -2 12 3 12 6 0 11 7 11 15 0 18 17 20 23 3 2 -7 3 -4 1
7 -2 15 3 21 17 22 16 2 18 -1 9 -12 -8 -9 -8 -15 0 -20 6 -4 9 -1 8 7 -2 7 3
12 10 11 6 -2 12 2 12 8 0 5 4 8 8 5 5 -3 16 4 25 15 10 11 22 17 27 14 4 -3
17 7 28 23 l21 28 -25 0 c-14 0 -28 -4 -30 -8z m25 -19 c-6 -12 -17 -16 -34
-13 -14 2 -25 1 -24 -3 3 -20 -3 -29 -21 -30 -11 -1 -20 3 -20 9 0 6 -7 5 -17
-3 -16 -13 -17 -12 -4 4 8 9 16 15 19 13 3 -3 18 4 33 15 21 14 29 16 29 7 1
-9 3 -8 10 3 13 23 42 21 29 -2z m-158 -59 c-13 -11 -20 -20 -17 -20 4 0 4 -5
1 -10 -5 -8 -11 -8 -19 -1 -9 8 -19 2 -35 -20 -13 -17 -25 -28 -29 -25 -3 3
-13 0 -22 -6 -9 -7 6 8 33 34 28 26 53 45 57 43 4 -2 16 2 26 10 28 21 33 17
5 -5z m-171 -115 c0 -2 -6 -8 -13 -14 -10 -8 -14 -7 -14 2 0 8 6 14 14 14 7 0
13 -1 13 -2z"/>
<path d="M865 1690 c-3 -6 1 -7 9 -4 18 7 21 14 7 14 -6 0 -13 -4 -16 -10z"/>
<path d="M699 1603 c-13 -16 -12 -17 4 -4 9 7 17 15 17 17 0 8 -8 3 -21 -13z"/>
<path d="M441 1430 c-11 -16 -18 -36 -15 -44 7 -18 24 -22 24 -6 0 6 -4 10
-10 10 -19 0 -10 16 10 17 13 1 18 -2 14 -9 -4 -7 -2 -8 4 -4 9 5 9 13 1 27
-6 12 -8 23 -5 27 3 3 6 1 6 -5 0 -6 7 -13 14 -16 10 -4 13 -1 10 8 -10 25
-31 23 -53 -5z"/>
<path d="M374 1368 l-19 -23 23 19 c21 18 27 26 19 26 -2 0 -12 -10 -23 -22z"/>
<path d="M215 1132 c-7 -19 -6 -22 6 -22 5 0 7 5 4 10 -6 9 17 15 40 10 6 -1
7 2 2 6 -13 13 -46 11 -52 -4z"/>
<path d="M193 1045 c0 -8 4 -12 9 -9 5 3 6 10 3 15 -9 13 -12 11 -12 -6z"/>
<path d="M1462 1628 c2 -9 -9 -13 -38 -13 -27 0 -49 -7 -62 -18 -12 -11 -26
-16 -32 -12 -7 4 -24 -5 -40 -20 -15 -15 -31 -27 -34 -26 -18 3 -29 0 -23 -6
4 -3 2 -12 -3 -18 -7 -8 -3 -18 13 -31 l22 -19 -19 23 c-23 26 -11 29 17 5 11
-10 17 -12 13 -5 -4 7 -2 12 6 12 11 0 10 2 0 9 -11 7 -11 9 2 14 9 4 19 -1
24 -10 8 -14 10 -13 15 1 4 10 3 15 -3 11 -6 -3 -10 -2 -10 3 0 17 13 22 28 9
13 -9 14 -9 8 1 -4 6 -3 12 3 12 6 0 8 8 4 18 -3 9 -3 14 2 10 4 -4 15 -2 23
5 13 10 15 9 9 -5 -9 -25 10 -32 23 -8 9 17 14 18 32 9 12 -7 18 -7 14 -1 -4
7 7 9 29 8 25 -2 32 0 26 8 -5 6 -10 16 -10 21 -1 6 -4 10 -8 10 -5 0 -14 4
-21 8 -8 6 -12 4 -10 -5z m31 -25 c-6 -15 -19 -17 -27 -4 -7 11 0 18 18 18 8
0 12 -6 9 -14z m-45 -8 c4 -5 0 -6 -9 -2 -9 3 -21 1 -27 -5 -6 -6 -12 -6 -17
2 -5 8 -11 7 -23 -2 -15 -11 -15 -11 -4 3 13 17 66 19 80 4z m-112 -33 c1 -7
0 -8 -3 -2 -6 12 -24 13 -20 1 1 -5 0 -9 -3 -8 -12 3 -48 -38 -43 -47 3 -6 0
-6 -7 1 -10 9 -5 18 21 42 34 31 51 35 55 13z"/>
<path d="M1490 1559 c0 -5 5 -7 10 -4 6 3 10 8 10 11 0 2 -4 4 -10 4 -5 0 -10
-5 -10 -11z"/>
<path d="M1134 1432 c4 -6 -2 -16 -13 -22 -13 -7 -18 -16 -14 -27 4 -10 2 -14
-4 -10 -10 6 -42 -30 -39 -44 1 -4 -8 -16 -18 -28 -11 -12 -14 -21 -9 -21 6 0
14 7 17 16 5 14 9 14 24 3 15 -12 16 -12 5 2 -10 12 -9 18 7 31 10 9 20 14 23
12 3 -3 8 0 13 7 4 7 3 10 -3 6 -7 -4 -10 3 -9 18 0 14 7 27 14 30 10 3 12 -2
8 -18 l-6 -22 12 23 c6 13 17 21 25 18 21 -8 15 0 -13 19 -15 9 -24 12 -20 7z
m-53 -95 l-24 -22 19 27 c10 14 21 24 23 22 3 -3 -6 -15 -18 -27z"/>
<path d="M995 1201 c6 -11 4 -13 -11 -7 -10 4 -15 4 -11 0 4 -4 -1 -17 -10
-28 -14 -15 -14 -18 -2 -8 9 6 20 8 24 4 5 -4 4 -1 0 7 -6 11 -4 13 7 8 17 -6
19 16 3 30 -4 5 -5 2 0 -6z"/>
<path d="M970 1139 c0 -5 5 -7 10 -4 6 3 10 8 10 11 0 2 -4 4 -10 4 -5 0 -10
-5 -10 -11z"/>
<path d="M859 1008 c-11 -37 3 -60 24 -39 9 9 8 11 -5 6 -13 -5 -16 -2 -13 14
2 12 2 21 -1 21 -2 0 -4 -1 -5 -2z"/>
<path d="M1013 913 c8 -12 -17 -36 -26 -26 -4 3 -7 2 -7 -4 0 -13 48 -14 56
-2 3 5 -3 6 -13 2 -15 -6 -16 -4 -5 9 10 13 10 18 1 24 -7 4 -9 3 -6 -3z"/>
<path d="M950 860 c0 -5 5 -10 10 -10 6 0 10 5 10 10 0 6 -4 10 -10 10 -5 0
-10 -4 -10 -10z"/>
<path d="M985 850 c-3 -6 1 -7 9 -4 18 7 21 14 7 14 -6 0 -13 -4 -16 -10z"/>
<path d="M936 837 c3 -10 9 -15 12 -12 3 3 0 11 -7 18 -10 9 -11 8 -5 -6z"/>
<path d="M2453 1740 c-51 -39 -97 -69 -104 -68 -6 2 -13 -8 -15 -21 -6 -33
-13 -39 -25 -21 -9 13 -10 13 -6 0 2 -8 14 -16 26 -16 17 -1 20 3 16 20 -6 21
-6 21 9 2 9 -11 16 -15 16 -10 0 6 -5 15 -12 22 -9 9 -9 12 -1 12 7 0 14 -4
18 -10 3 -5 13 -6 21 -3 13 5 13 7 2 14 -10 7 -8 9 6 9 13 0 16 5 12 17 -4 10
-4 14 0 11 4 -4 15 -3 25 2 13 8 21 6 29 -7 8 -15 9 -13 6 10 -4 25 6 37 17
20 2 -5 2 -3 1 4 -3 13 20 35 30 28 3 -3 2 1 -4 7 -8 9 -4 17 12 30 13 10 21
18 17 18 -3 0 -46 -32 -96 -70z m37 8 c-14 -11 -23 -26 -22 -32 2 -6 0 -8 -3
-4 -4 4 -17 2 -29 -4 -27 -14 -18 -5 30 32 45 34 61 40 24 8z m-93 -69 c-9 -6
-14 -15 -11 -21 4 -7 2 -8 -5 -4 -14 9 3 36 23 36 6 0 3 -5 -7 -11z"/>
<path d="M1565 1750 c-3 -5 -5 -10 -3 -11 36 -9 57 -7 62 7 5 14 4 15 -9 4
-11 -10 -18 -10 -29 -1 -10 8 -16 9 -21 1z"/>
<path d="M2244 1739 c-3 -5 -9 -7 -14 -4 -4 3 -14 -3 -21 -13 -7 -9 -9 -14 -5
-10 12 10 38 -11 30 -24 -4 -6 3 -5 15 1 17 10 48 49 39 52 -24 6 -39 5 -44
-2z m29 -15 c-8 -21 -31 -24 -45 -6 -8 10 -8 13 -1 9 6 -4 14 -4 17 1 8 14 35
10 29 -4z"/>
<path d="M2511 1724 c0 -11 3 -14 6 -6 3 7 2 16 -1 19 -3 4 -6 -2 -5 -13z"/>
<path d="M2430 1678 c0 -4 4 -8 9 -8 6 0 12 4 15 8 3 5 -1 9 -9 9 -8 0 -15 -4
-15 -9z"/>
<path d="M2096 1668 c3 -5 10 -6 15 -3 13 9 11 12 -6 12 -8 0 -12 -4 -9 -9z"/>
<path d="M1980 1601 c-6 -12 -15 -19 -19 -17 -5 3 -16 -3 -26 -14 -10 -11 -22
-17 -26 -14 -5 3 -6 -3 -2 -12 4 -11 3 -15 -5 -10 -6 3 -13 2 -17 -4 -4 -6
-11 -7 -17 -4 -7 4 -8 2 -4 -4 4 -7 3 -12 -2 -12 -19 0 -97 -73 -94 -87 2 -8
-1 -13 -6 -9 -11 7 -125 -108 -128 -130 -1 -9 0 -13 3 -10 4 3 16 -2 27 -11
20 -17 20 -17 6 1 -18 23 -22 47 -7 45 24 -3 38 1 33 10 -3 5 2 15 11 22 15
12 16 12 10 -4 -4 -11 -3 -16 4 -12 6 4 8 13 5 20 -3 8 3 19 11 27 15 11 16
11 10 -5 -4 -11 -3 -16 4 -12 6 4 8 13 5 20 -3 8 2 19 11 27 14 11 15 10 10
-12 -5 -17 -2 -15 8 7 8 18 20 31 27 29 7 -1 10 -1 6 1 -14 8 -8 25 7 20 8 -4
17 -2 20 4 4 5 12 7 18 3 7 -3 1 4 -12 15 -15 14 -18 21 -9 21 8 0 19 -5 25
-11 8 -8 16 -8 30 0 16 10 15 11 -7 5 -22 -6 -23 -5 -11 10 8 9 20 15 27 12 7
-3 16 -1 19 5 4 5 11 6 17 3 7 -4 8 -2 4 4 -4 7 -1 12 8 12 8 0 18 4 21 10 3
6 -1 7 -10 4 -11 -5 -14 -2 -9 10 3 9 11 13 17 9 5 -3 7 -1 3 5 -3 6 -2 13 4
17 9 5 14 -6 12 -26 -1 -3 5 -6 12 -6 15 0 15 42 -1 58 -8 8 -14 6 -23 -10z
m-26 -36 c-4 -8 -10 -15 -16 -15 -5 0 -7 -4 -4 -9 3 -5 -1 -14 -9 -21 -10 -9
-15 -9 -15 -1 0 6 5 11 12 11 6 0 8 3 5 7 -4 3 0 15 10 25 20 22 24 23 17 3z
m-54 -38 c0 -2 -10 -12 -22 -23 l-23 -19 19 23 c18 21 26 27 26 19z m-56 -69
c-4 -6 -9 -6 -14 2 -5 8 -14 3 -27 -16 -16 -21 -22 -24 -28 -13 -5 8 -5 11 0
7 4 -4 16 4 27 17 18 23 56 25 42 3z m-125 -96 c-24 -26 -46 -47 -48 -45 -5 4
80 93 87 93 3 0 -15 -22 -39 -48z"/>
<path d="M2277 1596 c-17 -13 -16 -14 6 -12 15 0 23 6 20 14 -6 14 -4 15 -26
-2z"/>
<path d="M2355 1310 c-3 -5 -1 -10 4 -10 6 0 11 5 11 10 0 6 -2 10 -4 10 -3 0
-8 -4 -11 -10z"/>
<path d="M1676 1278 c3 -5 10 -6 15 -3 13 9 11 12 -6 12 -8 0 -12 -4 -9 -9z"/>
<path d="M2350 1286 c0 -2 7 -7 16 -10 8 -3 12 -2 9 4 -6 10 -25 14 -25 6z"/>
<path d="M2333 1257 c-14 -18 -10 -40 7 -44 12 -4 12 -3 1 5 -10 8 -9 12 8 24
18 12 19 17 7 21 -8 3 -19 0 -23 -6z"/>
<path d="M1599 1225 c-1 -3 -2 -8 -3 -12 -1 -5 -5 -14 -9 -20 -12 -18 -3 -16
22 6 18 15 19 20 6 25 -8 3 -16 3 -16 1z"/>
<path d="M2300 1216 c0 -2 8 -10 18 -17 15 -13 16 -12 3 4 -13 16 -21 21 -21
13z"/>
<path d="M2085 1170 c-4 -6 -10 -8 -14 -5 -5 2 -17 -5 -27 -18 -19 -22 -19
-22 2 -4 11 9 23 15 26 12 3 -3 11 1 18 10 7 8 10 15 7 15 -3 0 -9 -5 -12 -10z"/>
<path d="M1577 1153 c3 -7 6 -13 8 -13 2 0 5 6 8 13 3 8 -1 14 -8 14 -7 0 -11
-6 -8 -14z"/>
<path d="M1556 1141 c-3 -5 1 -11 9 -14 9 -4 12 -1 8 9 -6 16 -10 17 -17 5z"/>
<path d="M1555 1100 c3 -5 8 -10 11 -10 2 0 4 5 4 10 0 6 -5 10 -11 10 -5 0
-7 -4 -4 -10z"/>
<path d="M2225 1081 c-3 -5 0 -13 6 -17 8 -4 9 -3 5 4 -4 7 -1 12 9 12 10 0
13 -5 9 -12 -4 -7 -3 -8 5 -4 14 9 5 26 -14 26 -8 0 -16 -4 -20 -9z"/>
<path d="M1921 1057 c-8 -10 -7 -14 2 -14 8 0 14 6 14 14 0 7 -1 13 -2 13 -2
0 -8 -6 -14 -13z"/>
<path d="M2203 1042 c-4 -9 -15 -29 -25 -44 -11 -16 -16 -28 -11 -28 4 0 1 -5
-7 -10 -13 -8 -12 -10 3 -10 12 0 16 -4 11 -12 -4 -7 -3 -9 1 -5 13 11 15 37
4 37 -6 0 -7 5 -4 10 5 8 12 7 23 -2 14 -10 15 -10 5 2 -18 19 -16 35 1 21 10
-8 16 -9 21 -1 4 6 3 9 -2 8 -9 -3 -13 5 -13 26 0 9 7 12 20 9 11 -3 20 -3 20
0 0 2 -9 7 -21 10 -13 4 -22 0 -26 -11z"/>
<path d="M524 998 c-19 -23 -19 -23 2 -5 11 9 24 14 29 10 4 -5 5 -2 1 5 -9
16 -10 16 -32 -10z"/>
<path d="M404 903 c-27 -20 -52 -42 -56 -47 -5 -7 -8 -7 -8 -1 0 6 -7 1 -15
-9 -15 -20 -29 -25 -77 -30 -15 -1 -31 -6 -35 -10 -5 -4 -1 -6 7 -4 16 4 21
-21 7 -40 -7 -9 -6 -11 7 -6 9 3 16 10 16 16 0 5 4 7 9 3 5 -3 12 -1 16 4 3 6
12 8 20 4 8 -3 15 0 15 6 0 6 5 10 12 9 7 -2 12 2 13 9 0 16 15 29 15 14 0 -7
5 -9 11 -5 6 3 8 16 5 28 -5 19 -4 19 15 -4 11 -15 17 -18 13 -7 -7 19 5 23
24 7 9 -7 9 -7 3 1 -6 8 -5 17 5 26 8 8 11 19 8 25 -4 6 1 8 15 3 14 -4 21 -2
21 7 0 10 3 9 10 -2 5 -8 10 -10 10 -4 0 6 -8 18 -18 28 -18 15 -22 14 -68
-21z m54 11 c-1 -5 -10 -9 -18 -9 -8 0 -15 -6 -15 -14 0 -18 -41 -45 -49 -32
-3 5 13 23 36 40 39 29 54 34 46 15z m-126 -87 c-7 -8 -8 -17 -4 -21 4 -4 3
-7 -3 -6 -5 1 -13 1 -17 0 -5 -1 -12 -4 -18 -5 -5 -1 -11 -3 -12 -5 -2 -1 -11
-3 -20 -5 -12 -2 -15 2 -10 13 3 10 7 12 10 4 2 -8 8 -8 19 3 8 8 19 13 23 10
5 -3 15 3 22 14 7 11 14 18 17 16 2 -3 -1 -11 -7 -18z"/>
<path d="M394 874 c-18 -14 -18 -15 4 -4 12 6 22 13 22 15 0 8 -5 6 -26 -11z"/>
<path d="M2356 925 c-3 -8 -1 -15 4 -15 6 0 10 7 10 15 0 8 -2 15 -4 15 -2 0
-6 -7 -10 -15z"/>
<path d="M1704 888 c-16 -13 -31 -26 -32 -30 -2 -5 -8 -6 -12 -3 -5 3 -14 -4
-20 -15 -6 -11 -15 -18 -20 -15 -5 3 -11 1 -15 -4 -3 -5 -14 -8 -25 -6 -11 2
-22 -1 -26 -6 -4 -6 -11 -6 -20 2 -8 6 -14 8 -14 4 0 -4 -7 -2 -15 5 -8 7 -15
9 -15 5 0 -5 -9 0 -19 9 -11 10 -21 13 -25 7 -4 -5 -2 -12 3 -16 6 -3 8 -13 5
-23 -5 -14 -4 -14 4 -3 11 16 46 25 36 10 -3 -5 -10 -7 -15 -4 -5 4 -9 1 -9
-4 0 -6 7 -11 16 -11 9 0 12 -5 8 -12 -4 -6 -3 -8 4 -4 6 3 18 -2 28 -11 16
-16 17 -16 12 -1 -10 26 5 31 19 6 11 -20 12 -21 13 -4 0 15 3 16 15 6 20 -16
32 -5 16 14 -8 9 -8 16 -2 20 5 4 12 -3 16 -14 6 -18 8 -18 21 -5 9 8 20 12
26 9 7 -4 8 -2 4 5 -4 6 -12 8 -18 5 -7 -4 -8 -2 -4 5 4 6 16 9 26 6 11 -3 20
0 24 10 3 9 10 14 14 11 5 -3 18 1 28 9 15 12 15 14 3 9 -10 -3 -20 -1 -24 5
-3 6 0 11 8 11 17 0 30 27 18 35 -5 2 -22 -5 -37 -17z m18 -6 c-16 -13 -20
-21 -12 -30 6 -6 7 -10 3 -7 -3 3 -15 -2 -25 -12 -16 -14 -18 -14 -18 0 0 14
54 67 68 67 4 0 -3 -8 -16 -18z m-80 -66 c-16 -21 -21 -23 -26 -10 -3 8 -2 12
4 9 5 -3 15 3 22 14 7 11 14 18 16 16 2 -2 -5 -15 -16 -29z m-121 -26 c6 0 7
5 3 12 -5 7 -3 8 5 3 9 -5 9 -11 3 -17 -12 -12 -32 -2 -31 15 0 9 2 9 6 0 2
-7 9 -13 14 -13z m64 12 c-3 -3 1 -12 8 -21 11 -14 10 -14 -5 -2 -10 7 -18 10
-18 7 0 -4 -5 -4 -10 -1 -14 8 -5 22 15 22 8 0 13 -3 10 -5z"/>
<path d="M2332 897 c10 -8 14 -18 10 -22 -4 -5 -1 -5 6 -1 17 10 15 14 -10 26
-21 10 -21 10 -6 -3z"/>
<path d="M1380 879 c-7 -11 -14 -18 -18 -15 -3 4 -18 -5 -33 -20 -15 -14 -31
-26 -36 -26 -4 0 -7 -4 -5 -9 2 -8 -12 -13 -30 -10 -4 0 -16 -11 -27 -26 -12
-14 -21 -20 -21 -13 0 9 -8 6 -23 -8 -13 -13 -32 -20 -44 -18 -12 3 -28 -3
-38 -14 -12 -13 -27 -18 -51 -15 -25 2 -38 -2 -48 -17 -12 -17 -14 -17 -20 -3
-3 9 -10 13 -16 10 -5 -3 -16 -3 -22 2 -7 4 -19 8 -26 9 -11 2 -11 -1 0 -14 7
-9 19 -21 26 -25 7 -5 10 -12 8 -16 -3 -4 1 -8 9 -8 8 0 14 3 13 6 -2 19 4 24
12 11 7 -11 12 -12 21 -3 6 6 18 9 25 6 9 -3 14 2 15 13 0 11 3 14 6 6 5 -14
44 -37 42 -25 -4 21 2 33 13 27 7 -4 8 -3 4 4 -4 7 -2 12 4 12 6 0 13 -7 17
-15 4 -13 11 -10 31 15 14 16 29 30 35 30 5 0 4 -6 -2 -14 -9 -11 -9 -16 0
-22 7 -4 9 -3 5 4 -3 6 -2 13 4 17 6 4 8 10 5 15 -3 5 -1 11 5 15 5 3 10 2 10
-3 0 -5 6 -9 14 -9 8 0 11 8 8 21 -4 21 -4 21 12 1 15 -19 16 -19 9 -1 -4 12
-3 17 4 13 6 -4 13 0 17 8 3 9 12 12 23 9 15 -5 16 -4 3 5 -14 10 -7 16 13 12
5 -1 6 3 3 8 -4 5 -2 12 4 16 5 3 10 1 10 -4 0 -6 5 -11 11 -11 5 0 8 4 4 9
-3 6 3 14 12 20 11 6 13 11 5 11 -7 0 -10 5 -7 11 5 7 13 4 26 -7 10 -9 16
-21 12 -27 -4 -6 -1 -7 6 -2 9 5 10 10 2 18 -15 15 -14 30 2 21 6 -4 3 2 -7
14 -23 27 -23 27 -36 1z m25 1 c3 -5 1 -10 -4 -10 -6 0 -11 5 -11 10 0 6 2 10
4 10 3 0 8 -4 11 -10z m-44 -34 c-1 -3 -3 -5 -5 -3 -3 1 -20 -13 -39 -31 -19
-18 -42 -35 -51 -36 -10 -1 -22 -9 -27 -17 -5 -8 -9 -9 -9 -3 0 6 7 17 15 24
8 7 15 9 15 6 0 -4 9 -2 20 4 11 6 17 16 14 22 -4 6 -3 8 3 5 6 -4 21 5 33 18
21 23 33 27 31 11z m-183 -125 c-26 -23 -36 -27 -47 -18 -10 9 -17 6 -31 -11
-22 -26 -26 -27 -34 -6 -3 9 -2 12 5 8 6 -3 21 4 35 17 17 16 24 18 24 8 0
-12 2 -11 10 1 8 13 10 13 10 0 0 -10 6 -8 22 8 12 12 26 22 30 22 5 0 -6 -13
-24 -29z m-205 -39 c4 9 6 9 6 1 2 -22 -16 -23 -35 0 l-19 22 21 -18 c17 -14
23 -15 27 -5z m69 -1 c-4 -11 -7 -11 -10 -2 -3 8 -8 7 -19 -6 -13 -17 -13 -17
-4 3 12 24 42 29 33 5z"/>
<path d="M2272 864 c-7 -8 -8 -14 -3 -14 10 0 25 19 20 25 -2 1 -10 -3 -17
-11z"/>
<path d="M2305 872 c3 -3 -2 -13 -11 -23 -12 -13 -12 -19 -3 -25 8 -4 10 -3 5
4 -4 6 2 17 14 24 24 15 26 25 5 25 -8 0 -13 -3 -10 -5z"/>
<path d="M2248 833 c-22 -5 -24 -20 -3 -20 8 0 16 6 19 14 3 7 4 12 3 12 -1
-1 -10 -3 -19 -6z"/>
<path d="M112 816 c7 -8 15 -12 17 -11 5 6 -10 25 -20 25 -5 0 -4 -6 3 -14z"/>
<path d="M170 826 c0 -2 8 -10 18 -17 15 -13 16 -12 3 4 -13 16 -21 21 -21 13z"/>
<path d="M2210 809 c0 -5 -6 -7 -12 -3 -7 4 -4 -2 6 -14 15 -17 22 -19 33 -11
7 7 11 15 7 18 -4 3 -9 0 -11 -7 -3 -6 -9 -10 -13 -7 -5 3 -7 12 -3 20 3 8 2
15 -1 15 -3 0 -6 -5 -6 -11z"/>
<path d="M275 760 c-3 -6 1 -7 9 -4 18 7 21 14 7 14 -6 0 -13 -4 -16 -10z"/>
<path d="M764 728 c-16 -17 -22 -27 -14 -23 8 5 21 17 29 28 7 10 20 16 28 13
8 -3 11 -1 8 4 -10 16 -19 12 -51 -22z"/>
<path d="M1960 640 c-6 -11 -16 -17 -22 -14 -7 4 -8 3 -4 -5 4 -6 12 -9 17 -6
11 7 32 45 25 45 -3 0 -10 -9 -16 -20z"/>
<path d="M1015 640 c-3 -6 1 -7 9 -4 18 7 21 14 7 14 -6 0 -13 -4 -16 -10z"/>
<path d="M606 622 c-3 -5 1 -9 9 -9 8 0 12 4 9 9 -3 4 -7 8 -9 8 -2 0 -6 -4
-9 -8z"/>
<path d="M583 578 c-4 -7 -8 -16 -8 -20 0 -3 -12 -16 -28 -28 -15 -12 -25 -25
-22 -30 3 -5 2 -10 -2 -12 -5 -2 -24 -21 -43 -42 -24 -27 -28 -34 -12 -25 12
8 22 17 22 22 0 4 5 5 10 2 6 -4 7 -12 3 -18 -4 -7 1 -6 10 2 12 10 14 17 7
26 -13 15 13 40 31 29 8 -4 9 -3 5 5 -10 15 32 73 47 64 8 -5 8 -2 0 9 -7 8
-10 18 -6 21 3 4 4 7 0 7 -3 0 -9 -6 -14 -12z m-23 -52 c0 -2 -8 -10 -17 -17
-16 -13 -17 -12 -4 4 13 16 21 21 21 13z"/>
<path d="M1863 525 c1 -11 -4 -20 -12 -20 -22 0 -21 -31 1 -32 13 -1 18 3 14
12 -3 8 -1 17 4 20 4 3 11 -1 13 -7 3 -7 6 -8 6 -2 1 5 -5 19 -13 30 -14 19
-14 19 -13 -1z"/>
<path d="M361 306 c-19 -19 -28 -36 -23 -40 6 -3 14 -1 18 5 4 8 9 7 15 -2 7
-11 9 -11 10 -1 1 6 2 18 3 25 1 6 9 11 18 11 14 -1 15 2 7 17 -5 11 -11 19
-12 19 -2 0 -18 -15 -36 -34z m26 6 c-10 -10 -16 -21 -15 -23 2 -2 1 -3 -1 -2
-2 2 -11 -3 -20 -9 -9 -7 -3 2 13 20 17 18 32 32 34 32 3 0 -2 -8 -11 -18z"/>
<path d="M1672 299 c-18 -17 -30 -34 -27 -39 7 -12 -15 -17 -67 -15 -26 1 -45
-2 -42 -6 2 -4 -3 -9 -11 -11 -9 -2 1 -12 26 -26 23 -13 38 -19 35 -13 -7 11
29 35 54 36 9 0 15 9 14 23 -1 16 3 21 12 18 8 -3 18 4 24 15 6 11 15 17 20
14 14 -9 21 12 7 23 -10 8 -21 3 -45 -19z m44 9 c4 -6 3 -8 -4 -4 -6 3 -18 -4
-26 -16 -9 -12 -16 -18 -16 -14 0 9 29 46 36 46 2 0 6 -5 10 -12z m-96 -74 c0
-1 -12 -9 -26 -19 -20 -13 -28 -14 -40 -5 -21 18 -9 28 31 26 19 0 35 -2 35
-2z"/>
<path d="M1550 225 c0 -7 30 -13 34 -7 3 4 -4 9 -15 9 -10 1 -19 0 -19 -2z"/>
<path d="M188 253 c6 -2 9 -10 6 -15 -4 -7 -2 -8 5 -4 13 9 5 26 -12 25 -9 0
-8 -2 1 -6z"/>
</g>
</svg>
