<?xml version="1.0" encoding="UTF-8"?>
<svg xmlns="http://www.w3.org/2000/svg" width="479" height="646" version="1">
  <g fill="none" fill-rule="evenodd">
    <path fill="none" d="M0 0h479v646H0z"/>
    <g stroke="#0047ba" stroke-width="8">
      <path d="M224 369c13-7 21-18 17-27m-18 28c14-7 22-18 17-28m1-1c-4-8-18-9-32-4m31 4c-2-8-17-8-32-3m0 0c-13 6-19 18-16 28m16-28c-13 6-21 18-16 28m0 0c5 8 18 9 32 3m-33-4c4 9 19 9 32 4m0 0h1m-1 0h1"/>
      <path d="M319 267c-29 16-60 39-114 77m114-78c-38 24-75 50-116 77"/>
    </g>
  </g>
</svg>
